<mxfile host="Electron" agent="Mozilla/5.0 (X11; Linux x86_64) AppleWebKit/537.36 (KHTML, like Gecko) draw.io/26.0.4 Chrome/128.0.6613.186 Electron/32.2.5 Safari/537.36" version="26.0.4">
  <diagram name="Page-1" id="qjOANoWTXv3r0-3Rltoy">
    <mxGraphModel dx="1114" dy="1198" grid="1" gridSize="10" guides="1" tooltips="1" connect="1" arrows="1" fold="1" page="1" pageScale="1" pageWidth="850" pageHeight="1100" math="0" shadow="0">
      <root>
        <mxCell id="0" />
        <mxCell id="1" parent="0" />
        <mxCell id="e8Ur0xVzGWrx7RtX-n4p-15" value="&amp;nbsp;rquest&amp;nbsp;" style="edgeStyle=orthogonalEdgeStyle;rounded=0;orthogonalLoop=1;jettySize=auto;html=1;" edge="1" parent="1" source="e8Ur0xVzGWrx7RtX-n4p-3" target="e8Ur0xVzGWrx7RtX-n4p-2">
          <mxGeometry relative="1" as="geometry" />
        </mxCell>
        <mxCell id="e8Ur0xVzGWrx7RtX-n4p-3" value="Client / Internet" style="sketch=0;outlineConnect=0;fontColor=#232F3E;gradientColor=none;fillColor=#232F3D;strokeColor=none;dashed=0;verticalLabelPosition=bottom;verticalAlign=top;align=center;html=1;fontSize=12;fontStyle=0;aspect=fixed;pointerEvents=1;shape=mxgraph.aws4.client;" vertex="1" parent="1">
          <mxGeometry x="110" y="518" width="78" height="76" as="geometry" />
        </mxCell>
        <mxCell id="e8Ur0xVzGWrx7RtX-n4p-4" value="AWS Cloud" style="points=[[0,0],[0.25,0],[0.5,0],[0.75,0],[1,0],[1,0.25],[1,0.5],[1,0.75],[1,1],[0.75,1],[0.5,1],[0.25,1],[0,1],[0,0.75],[0,0.5],[0,0.25]];outlineConnect=0;gradientColor=none;html=1;whiteSpace=wrap;fontSize=12;fontStyle=0;container=1;pointerEvents=0;collapsible=0;recursiveResize=0;shape=mxgraph.aws4.group;grIcon=mxgraph.aws4.group_aws_cloud_alt;strokeColor=#232F3E;fillColor=none;verticalAlign=top;align=left;spacingLeft=30;fontColor=#232F3E;dashed=0;" vertex="1" parent="1">
          <mxGeometry x="310" y="425" width="430" height="250" as="geometry" />
        </mxCell>
        <mxCell id="e8Ur0xVzGWrx7RtX-n4p-1" value="VPC" style="points=[[0,0],[0.25,0],[0.5,0],[0.75,0],[1,0],[1,0.25],[1,0.5],[1,0.75],[1,1],[0.75,1],[0.5,1],[0.25,1],[0,1],[0,0.75],[0,0.5],[0,0.25]];outlineConnect=0;gradientColor=none;html=1;whiteSpace=wrap;fontSize=12;fontStyle=0;container=1;pointerEvents=0;collapsible=0;recursiveResize=0;shape=mxgraph.aws4.group;grIcon=mxgraph.aws4.group_vpc2;strokeColor=#8C4FFF;fillColor=none;verticalAlign=top;align=left;spacingLeft=30;fontColor=#AAB7B8;dashed=0;" vertex="1" parent="e8Ur0xVzGWrx7RtX-n4p-4">
          <mxGeometry x="60" y="30" width="350" height="200" as="geometry" />
        </mxCell>
        <mxCell id="e8Ur0xVzGWrx7RtX-n4p-13" style="edgeStyle=orthogonalEdgeStyle;rounded=0;orthogonalLoop=1;jettySize=auto;html=1;" edge="1" parent="e8Ur0xVzGWrx7RtX-n4p-1" source="e8Ur0xVzGWrx7RtX-n4p-2" target="e8Ur0xVzGWrx7RtX-n4p-6">
          <mxGeometry relative="1" as="geometry" />
        </mxCell>
        <mxCell id="e8Ur0xVzGWrx7RtX-n4p-2" value="" style="sketch=0;outlineConnect=0;fontColor=#232F3E;gradientColor=none;fillColor=#8C4FFF;strokeColor=none;dashed=0;verticalLabelPosition=bottom;verticalAlign=top;align=center;html=1;fontSize=12;fontStyle=0;aspect=fixed;pointerEvents=1;shape=mxgraph.aws4.internet_gateway;" vertex="1" parent="e8Ur0xVzGWrx7RtX-n4p-1">
          <mxGeometry x="-40" y="63" width="78" height="78" as="geometry" />
        </mxCell>
        <mxCell id="e8Ur0xVzGWrx7RtX-n4p-5" value="Security group" style="fillColor=none;strokeColor=#DD3522;verticalAlign=top;fontStyle=0;fontColor=#DD3522;whiteSpace=wrap;html=1;" vertex="1" parent="e8Ur0xVzGWrx7RtX-n4p-1">
          <mxGeometry x="200" y="33" width="134" height="150" as="geometry" />
        </mxCell>
        <mxCell id="e8Ur0xVzGWrx7RtX-n4p-7" value="Amazon RDS&lt;div&gt;(DB Instance)&lt;/div&gt;" style="sketch=0;outlineConnect=0;fontColor=#232F3E;gradientColor=none;fillColor=#C925D1;strokeColor=none;dashed=0;verticalLabelPosition=bottom;verticalAlign=top;align=center;html=1;fontSize=12;fontStyle=0;aspect=fixed;pointerEvents=1;shape=mxgraph.aws4.rds_instance;" vertex="1" parent="e8Ur0xVzGWrx7RtX-n4p-1">
          <mxGeometry x="228" y="63" width="78" height="78" as="geometry" />
        </mxCell>
        <mxCell id="e8Ur0xVzGWrx7RtX-n4p-8" value="Security group" style="fillColor=none;strokeColor=#DD3522;verticalAlign=top;fontStyle=0;fontColor=#DD3522;whiteSpace=wrap;html=1;" vertex="1" parent="e8Ur0xVzGWrx7RtX-n4p-1">
          <mxGeometry x="50" y="33" width="134" height="150" as="geometry" />
        </mxCell>
        <mxCell id="e8Ur0xVzGWrx7RtX-n4p-11" style="edgeStyle=orthogonalEdgeStyle;rounded=0;orthogonalLoop=1;jettySize=auto;html=1;" edge="1" parent="e8Ur0xVzGWrx7RtX-n4p-1" source="e8Ur0xVzGWrx7RtX-n4p-6" target="e8Ur0xVzGWrx7RtX-n4p-7">
          <mxGeometry relative="1" as="geometry" />
        </mxCell>
        <mxCell id="e8Ur0xVzGWrx7RtX-n4p-6" value="EC2 Instance with&lt;div&gt;Web Application&lt;/div&gt;" style="sketch=0;points=[[0,0,0],[0.25,0,0],[0.5,0,0],[0.75,0,0],[1,0,0],[0,1,0],[0.25,1,0],[0.5,1,0],[0.75,1,0],[1,1,0],[0,0.25,0],[0,0.5,0],[0,0.75,0],[1,0.25,0],[1,0.5,0],[1,0.75,0]];outlineConnect=0;fontColor=#232F3E;fillColor=#ED7100;strokeColor=#ffffff;dashed=0;verticalLabelPosition=bottom;verticalAlign=top;align=center;html=1;fontSize=12;fontStyle=0;aspect=fixed;shape=mxgraph.aws4.resourceIcon;resIcon=mxgraph.aws4.ec2;" vertex="1" parent="e8Ur0xVzGWrx7RtX-n4p-1">
          <mxGeometry x="78" y="63" width="78" height="78" as="geometry" />
        </mxCell>
      </root>
    </mxGraphModel>
  </diagram>
</mxfile>
